<svg xmlns="http://www.w3.org/2000/svg" xmlns:xlink="http://www.w3.org/1999/xlink" viewBox="0 0 3904.74 3904.74"><defs><style>.cls-1{fill:#bfa655;}.cls-2{fill:url(#radial-gradient);}.cls-3{fill:#c3a868;}</style><radialGradient id="radial-gradient" cx="1952.37" cy="1952.37" r="1952.37" gradientUnits="userSpaceOnUse"><stop offset="0" stop-color="#023830"/><stop offset="1" stop-color="#031916"/></radialGradient></defs><g id="Layer_2" data-name="Layer 2"><g id="Layer_1-2" data-name="Layer 1"><path class="cls-1" d="M1969.25,658.77,629.77,1455.39V3048.63l1339.48,796.62,1339.47-796.62V1455.39Zm1201.3,2308.75L1969.25,3682,768.15,2967.52V1538.79l1201.1-714.47,1201.3,714.47Z"/><polygon class="cls-1" points="1095.39 1655.29 1095.39 2860.87 1962.35 3413.1 2495.41 3094.21 2495.41 2911.43 1969.31 3226.43 1250.95 2783.09 1250.95 1752.52 1960.01 1324.73 2339.86 1550.29 2339.86 1760.3 1969.31 1534.74 1457.07 1838.08 1457.07 2705.31 1969.31 3047.54 2495.41 2732.53 2495.41 2211.41 2009.3 2436.97 2176.52 2557.53 2343.74 2452.53 2343.74 2639.2 1989.85 2849.2 1632.07 2623.64 1632.07 1927.52 1962.35 1729.18 2495.41 2040.3 2495.41 1460.85 1962.35 1130.29 1095.39 1655.29"/><polygon class="cls-1" points="2857.09 1678.63 2689.86 1573.63 2689.86 3035.87 2857.09 2942.54 2857.09 1678.63"/><rect class="cls-2" width="3904.74" height="3904.74"/><path class="cls-1" d="M1952.37,734l-659.06,392v783.91l659.06,392,659.06-392V1126Zm591.07,1136-591.07,351.54L1361.4,1870V1167l591-351.53L2543.44,1167Z"/><polygon class="cls-1" points="1522.41 1224.34 1522.41 1817.51 1948.98 2089.23 2211.26 1932.32 2211.26 1842.39 1952.4 1997.38 1598.95 1779.24 1598.95 1272.17 1947.83 1061.69 2134.72 1172.67 2134.72 1276 1952.4 1165.02 1700.36 1314.27 1700.36 1740.97 1952.4 1909.36 2211.26 1754.37 2211.26 1497.96 1972.08 1608.94 2054.35 1668.26 2136.63 1616.6 2136.63 1708.45 1962.51 1811.77 1786.47 1700.79 1786.47 1358.28 1948.98 1260.69 2211.26 1413.77 2211.26 1128.66 1948.98 966.02 1522.41 1224.34"/><polygon class="cls-1" points="2389.21 1235.82 2306.93 1184.15 2306.93 1903.62 2389.21 1857.7 2389.21 1235.82"/><path class="cls-3" d="M1300.26,2574.35V2581q-14.51,0-18.29,3.79l48.26,132.15,46.36-130.26q-3.15-5.68-19.55-5.68v-6.62h51.73V2581q-17.67,0-19.25,5.05l-61.82,172.84h-15.14l-61.19-171.27q-2.52-6.62-20.18-6.62v-6.62Z"/><path class="cls-3" d="M1418.54,2758.86v-6.62q17.57,0,20.5-6.31V2587.28q-2.93-6.32-20.5-6.31v-6.62h69.39V2581q-17.58,0-20.5,6.31v158.65q2.92,6.32,20.5,6.31v6.62Z"/><path class="cls-3" d="M1514.42,2758.86v-6.62q17,0,19.87-6.31V2587.28q-2.83-6.32-19.87-6.31v-6.62h42.27l104.4,129V2587.28q-2.83-6.32-19.87-6.31v-6.62h50.46V2581q-17,0-19.87,6.31v171.58H1669L1545,2602.1v143.83q2.84,6.32,19.87,6.31v6.62Z"/><path class="cls-3" d="M1714.71,2758.86v-6.62q17.57,0,20.5-6.31V2587.28q-2.93-6.32-20.5-6.31v-6.62h69.39V2581q-17.58,0-20.5,6.31v70.34h81.06v-70.34q-2.94-6.32-20.51-6.31v-6.62h69.39V2581q-17.58,0-20.5,6.31v158.65q2.93,6.32,20.5,6.31v6.62h-69.39v-6.62q17.58,0,20.51-6.31v-77.59H1763.6v77.59q2.93,6.32,20.5,6.31v6.62Z"/><path class="cls-3" d="M1921,2666.76q0-39.42,24.61-67.5t62.76-28.07q38.16,0,62.77,28.07t24.6,67.5q0,39.43-24.76,67.34T2008.35,2762q-38.47,0-62.92-27.76T1921,2666.76Zm31.54-2.52a135.67,135.67,0,0,0,5.84,39.9,81.9,81.9,0,0,0,19.24,33.12q13.41,14,32,14a41.91,41.91,0,0,0,31.39-13.24,74.09,74.09,0,0,0,18-31.07,137.47,137.47,0,0,0-.79-77.59,83.21,83.21,0,0,0-19.4-33.44q-13.41-14-31.7-14a42.78,42.78,0,0,0-25.07,7.57,51.82,51.82,0,0,0-17,20,118.69,118.69,0,0,0-9.3,26.34A127.36,127.36,0,0,0,1952.52,2664.24Z"/><path class="cls-3" d="M2122.53,2758.86v-6.62q17,0,19.87-6.31V2587.28q-2.83-6.32-19.87-6.31v-6.62h46L2235.76,2721l67.14-146.66h46.73V2581q-17.58,0-20.51,6.31v158.65q2.94,6.32,20.51,6.31v6.62h-69.4v-6.62q17.58,0,20.51-6.31V2604.31l-70.66,154.55h-4.73l-72.23-156.44v143.51q2.85,6.32,19.87,6.31v6.62Z"/><path class="cls-3" d="M2375.48,2758.86v-6.62q17.58,0,20.51-6.31V2587.28q-2.92-6.32-20.51-6.31v-6.62h127.75v30.59h-6.63q0-17-6.44-19.87h-65.79v72.55h44.44q6.34-2.85,6.35-19.88h6.62v50.47h-6.62q0-17-6.35-19.87h-44.44v79.8h72.55q7.88-3.46,14.19-19.87h6.31l-7.57,30.59Z"/><path class="cls-3" d="M2601.32,2762a111.53,111.53,0,0,1-31.54-4.73q-16.09-4.74-16.72-4.74a7.76,7.76,0,0,0-4.42,1.9,5.45,5.45,0,0,0-2.52,4.41h-7.25V2715h6.94q3.46,18.93,18.76,27.6t34.86,8.67q16.71,0,27.44-7.57t10.72-22.71a26.56,26.56,0,0,0-3-12.61,33.91,33.91,0,0,0-9.14-10.57,101.39,101.39,0,0,0-11.83-8.2q-5.68-3.32-14.67-8.2t-13.72-7.73q-11-6.93-16.4-10.57a150.6,150.6,0,0,1-13.72-10.88,47.72,47.72,0,0,1-12.14-15.14,38.72,38.72,0,0,1-3.79-17q0-18.6,17-33.75t38.17-15.14q9.15,0,22.71,4.73t15.45,4.73q3.8,0,3.79-6.3h7.25l3.47,40.05h-6.94q-1.91-13.87-14-23.18t-31.45-9.3q-14.51,0-23.18,9.3t-8.67,18.77a22.9,22.9,0,0,0,2.84,11.19,30,30,0,0,0,8.83,9.62q6,4.42,11.35,7.73t14.35,8q9,4.73,13.95,7.57,13.52,7.88,19.47,11.67a155.48,155.48,0,0,1,15.35,11.67q9.41,7.88,13.2,16.24a44.1,44.1,0,0,1,3.8,18.45q0,23.36-19.7,36.59T2601.32,2762Z"/><path class="cls-3" d="M603.68,2975.13q-46.32,0-79.7,43.35T490.6,3123.22q0,37.16,9.69,65.7t25.85,44.42q16.15,15.9,33.92,23.43a91.59,91.59,0,0,0,36.09,7.54,159.4,159.4,0,0,0,57.08-10.23v-110.4q-5-10.77-35-10.77V3121.6H736.7v11.31q-30,0-35,10.77v90.47q-9.06,17.23-36.51,32.85t-70.11,15.62q-72.17,0-116.32-46.85t-44.16-111.48q0-74.84,50.62-121.16t117.94-46.31q15.42,0,38.31,8.07t26.09,8.08c4.09,0,6.14-3.58,6.14-10.77h12.39l5.38,68.39H679.61q-3.18-23.68-23.36-39.58T603.68,2975.13Z"/><path class="cls-3" d="M769,3120q0-67.32,42-115.25t107.16-47.92q65.16,0,107.17,47.92t42,115.25q0,67.32-42.27,115t-106.9,47.66q-65.7,0-107.43-47.39T769,3120Zm53.85-4.31a231.39,231.39,0,0,0,10,68.12,139.64,139.64,0,0,0,32.85,56.54q22.88,24,54.66,24t53.58-22.62a126.24,126.24,0,0,0,30.69-53,234.55,234.55,0,0,0-1.34-132.48,142.26,142.26,0,0,0-33.12-57.08q-22.9-24-54.12-24-24.24,0-42.81,12.92a88.58,88.58,0,0,0-29.08,34.2,201.73,201.73,0,0,0-15.89,45A218.09,218.09,0,0,0,822.85,3115.68Z"/><path class="cls-3" d="M1112,3277.23v-11.31q30,0,35-10.77V2984.28q-5-10.77-35-10.77V2962.2h118.48v11.31q-30,0-35,10.77v274.64h122.78q13.46-5.91,24.24-33.92h10.77l-12.93,52.23Z"/><path class="cls-3" d="M1379.67,3277.23v-11.31q29.08,0,33.93-10.76V2984.81q-4.85-11.29-33.93-11.3V2962.2h123.67q71.46,0,115,43.55t43.52,113.43q0,69.87-42.45,114t-109.62,44.09Zm82.39-298.87v280.56h47a78.17,78.17,0,0,0,33.78-7.79q16.47-7.78,31.62-23.37t24.32-43.55q9.2-27.95,9.19-64.49,0-69.88-31.62-105.62t-73.78-35.74Z"/><path class="cls-3" d="M1707.62,3277.23v-11.31q30,0,35-10.77V2984.28q-5-10.77-35-10.77V2962.2h218.1v52.24h-11.31q0-29.08-11-33.93H1791.09v123.86H1867q10.82-4.85,10.83-33.93h11.31v86.16h-11.31q0-29.07-10.83-33.92h-75.87v136.24H1915q13.46-5.91,24.23-33.92H1950L1937,3277.23Z"/><path class="cls-3" d="M1981.72,3277.23v-11.31q29.08,0,33.93-10.77V2984.28q-4.85-10.77-33.93-10.77V2962.2h72.16l178.25,220.25V2984.28q-4.85-10.77-33.93-10.77V2962.2h86.17v11.31q-29.09,0-33.93,10.77v292.95h-4.85L2034,3009.59v245.56q4.85,10.79,33.92,10.77v11.31Z"/><path class="cls-3" d="M2617.7,2975.13q-46.32,0-77,38.23t-30.7,99.09q0,71.09,32.31,111.47t77.55,40.39q26.93,0,53.31-18.58t33.93-39.58l12.92,6.46q-12.39,29.63-39,49.81t-71.89,20.2q-71.62,0-113.36-46.58T2454,3124.29q0-75.37,48.2-121.43t115-46q15.62,0,36.08,8.07t23.69,8.08c4.31,0,6.47-3.58,6.47-10.77h12.38l5.39,68.39h-11.85q-3.78-24.23-21.27-39.85T2617.7,2975.13Z"/><path class="cls-3" d="M2755.56,3277.23v-11.31q30,0,35-10.77V2984.28q-5-10.77-35-10.77V2962.2H2874v11.31q-30,0-35,10.77v270.87q5,10.79,35,10.77v11.31Z"/><path class="cls-3" d="M2906.33,2962.2h269.8v52.24h-11.31q0-29.08-10.83-33.93h-88.8v274.64q5,10.79,35,10.77v11.31H2981.72v-11.31q30,0,35-10.77V2980.51h-88.32q-10.77,4.84-10.77,33.93h-11.31Z"/><path class="cls-3" d="M3299.44,2962.2v11.31q-25.3,0-31.23,6.46l82.69,145.94,85.87-142.71q-5.94-9.69-33.39-9.69V2962.2h88.31v11.31q-22.61,0-30.69,7l-96.93,161v113.62q5,10.79,35,10.77v11.31H3280.6v-11.31q30,0,35-10.77v-96.39L3216,2984.28q-7.56-10.77-34.47-10.77V2962.2Z"/></g></g></svg>